<?xml version="1.0" standalone="no"?>
<!DOCTYPE svg PUBLIC "-//W3C//DTD SVG 20010904//EN"
 "http://www.w3.org/TR/2001/REC-SVG-20010904/DTD/svg10.dtd">
<svg version="1.0" xmlns="http://www.w3.org/2000/svg"
 width="310.000000pt" height="280.000000pt" viewBox="0 0 310.000000 280.000000"
 preserveAspectRatio="xMidYMid meet">

<g transform="translate(0.000000,280.000000) scale(0.100000,-0.100000)"
fill="#000000" stroke="none">
<path d="M1723 2648 c-113 -65 -113 -65 -113 -103 0 -27 10 -41 62 -86 73 -63
131 -150 153 -227 9 -31 18 -62 20 -69 2 -7 28 4 70 32 70 47 111 63 190 72
104 11 246 -49 310 -133 14 -19 38 -60 53 -92 23 -49 27 -70 27 -147 0 -76 -4
-98 -26 -145 -92 -195 -301 -274 -499 -189 -27 12 -55 27 -61 35 -19 23 -28
16 -40 -28 -16 -63 -43 -110 -83 -149 -20 -19 -58 -78 -84 -131 l-49 -96 63
-36 c35 -20 68 -36 75 -36 6 0 28 13 48 29 50 39 87 57 149 70 144 30 325 -10
396 -88 11 -12 28 -21 38 -21 21 0 147 61 192 93 27 19 28 23 23 81 -7 82 6
147 48 233 51 102 121 175 210 218 l73 35 7 107 c5 64 4 113 -2 122 -5 9 -36
30 -69 48 -87 47 -156 119 -201 209 -37 76 -38 82 -42 201 l-3 123 -89 55
c-49 30 -97 55 -108 55 -11 0 -33 -11 -49 -25 -78 -65 -221 -102 -334 -86 -76
11 -125 30 -187 74 -25 18 -53 36 -63 39 -10 4 -50 -13 -105 -44z"/>
<path d="M550 882 c-286 -98 -352 -129 -408 -191 -12 -14 -26 -37 -30 -51 -9
-34 -9 -366 1 -412 10 -49 62 -103 112 -117 28 -8 326 -11 990 -11 l951 0 44
22 c35 18 51 35 70 73 24 48 25 58 25 235 0 171 -2 188 -22 225 -26 49 -65 87
-119 114 -41 22 -596 213 -601 207 -2 -1 -24 -74 -49 -162 -73 -256 -157 -495
-169 -482 -2 2 -14 80 -25 172 -11 93 -23 173 -26 177 -3 5 -45 9 -93 9 l-89
0 -23 -175 c-12 -96 -25 -175 -29 -175 -11 0 -108 274 -155 440 -25 91 -49
173 -51 183 -3 9 -8 17 -12 16 -4 0 -135 -44 -292 -97z"/>
<path d="M1205 932 c-107 -3 -120 -7 -134 -41 -11 -25 -9 -35 10 -72 12 -24
27 -47 33 -51 6 -4 52 -8 102 -8 84 0 93 2 106 23 24 36 28 68 13 103 -18 43
-35 49 -130 46z"/>
</g>
</svg>
